# xmcd
#
# Track frame offsets:
#	150
#	10916
#	22736
#	37044
#	48180
#	59843
#	70813
#	79859
#	90066
#	101128
#	113630
#	123071
#
# Disc length: 1794 seconds
#
# Revision: 0
# Processed by: cddbd v1.4PL0 Copyright (c) Steve Scherf et al.
# Submitted via: EasyCDDAExtractor 4.6.9.1
#
DISCID=8b07000c
DTITLE=Charlie Louvin - Hey Daddy
DYEAR=1968
DGENRE=Country
TTITLE0=Hey Daddy
TTITLE1=Even the Loser Likes To Dream
TTITLE2=Sounds of Goodbye
TTITLE3=What Then
TTITLE4=Heart of Clay
TTITLE5=Are You Teasing Me
TTITLE6=Love Takes Care of Me
TTITLE7=It's Not A Big Thing
TTITLE8=Next Time Your'e In Tulsa
TTITLE9=The Edge of Your Memory
TTITLE10=Born To Love You
TTITLE11=Did You Ever (-w Melba Montgomery)
EXTD=
EXTT0=
EXTT1=
EXTT2=
EXTT3=
EXTT4=
EXTT5=
EXTT6=
EXTT7=
EXTT8=
EXTT9=
EXTT10=
EXTT11=
PLAYORDER=
